<svg id="Layer_1" data-name="Layer 1" xmlns="http://www.w3.org/2000/svg" viewBox="0 0 57.93 63.95"><defs><style>.cls-1{fill:#fff;}</style></defs><title>giby-logo</title><path class="cls-1" d="M41.87,28.29V62.14a2,2,0,0,0,2.21,2,19.05,19.05,0,0,0,0-37.85A2,2,0,0,0,41.87,28.29Z" transform="translate(-3.07 -0.2)"/><path class="cls-1" d="M35.11,62.14V2.21A2,2,0,0,0,33,.2a32,32,0,0,0,0,64A2,2,0,0,0,35.11,62.14Z" transform="translate(-3.07 -0.2)"/><path class="cls-1" d="M61,17A19.06,19.06,0,0,0,44.06.21a2,2,0,0,0-2.19,2V17.15a2,2,0,0,0,2,2H59A2,2,0,0,0,61,17Z" transform="translate(-3.07 -0.2)"/></svg>