<svg id="Layer_1" data-name="Layer 1" xmlns="http://www.w3.org/2000/svg" viewBox="0 0 45.4 45.4"><title>x-cross</title><path d="M41.87,31.49,56.11,17.24a2,2,0,0,0,0-2.84L51.6,9.89a2,2,0,0,0-2.84,0L34.51,24.13a.71.71,0,0,1-1,0L19.24,9.89a2,2,0,0,0-2.84,0L11.89,14.4a2,2,0,0,0,0,2.84L26.13,31.49a.71.71,0,0,1,0,1L11.89,46.76a2,2,0,0,0,0,2.84l4.51,4.51a2,2,0,0,0,2.84,0L33.49,39.87a.71.71,0,0,1,1,0L48.76,54.11a2,2,0,0,0,2.84,0l4.51-4.51a2,2,0,0,0,0-2.84L41.87,32.51A.71.71,0,0,1,41.87,31.49Z" transform="translate(-11.3 -9.3)"/></svg>